<svg width="400" height="250" xmlns="http://www.w3.org/2000/svg">
  <!-- Background -->
  <rect width="400" height="250" fill="#f8fafc"/>
  
  <!-- Dashboard Window -->
  <rect x="20" y="20" width="360" height="210" rx="8" fill="#ffffff" stroke="#e2e8f0" stroke-width="1"/>
  
  <!-- Header -->
  <rect x="20" y="20" width="360" height="40" rx="8" fill="linear-gradient(to right, #0066FF, #00CCFF)"/>
  <text x="35" y="42" font-family="Arial, sans-serif" font-size="14" font-weight="bold" fill="white">AutoLead CRM</text>
  <text x="35" y="52" font-family="Arial, sans-serif" font-size="10" fill="white">AI-Powered Lead Management</text>
  
  <!-- Navigation -->
  <rect x="35" y="75" width="60" height="20" fill="#0066FF" rx="4"/>
  <text x="55" y="87" font-family="Arial, sans-serif" font-size="8" fill="white">Leads</text>
  <rect x="105" y="75" width="60" height="20" fill="#e2e8f0" rx="4"/>
  <text x="120" y="87" font-family="Arial, sans-serif" font-size="8" fill="#64748b">Analytics</text>
  
  <!-- Lead List -->
  <rect x="35" y="110" width="320" height="25" fill="#f8fafc" stroke="#e2e8f0"/>
  <circle cx="50" cy="122" r="6" fill="#10b981"/>
  <text x="65" y="125" font-family="Arial, sans-serif" font-size="10" font-weight="bold" fill="#1f2937">John Smith - TechCorp</text>
  <text x="250" y="125" font-family="Arial, sans-serif" font-size="8" fill="#10b981">Score: 95</text>
  <rect x="300" y="115" width="40" height="15" fill="#10b981" rx="3"/>
  <text x="310" y="124" font-family="Arial, sans-serif" font-size="7" fill="white">Hot Lead</text>
  
  <rect x="35" y="140" width="320" height="25" fill="#ffffff" stroke="#e2e8f0"/>
  <circle cx="50" cy="152" r="6" fill="#f59e0b"/>
  <text x="65" y="155" font-family="Arial, sans-serif" font-size="10" fill="#1f2937">Sarah Johnson - StartupX</text>
  <text x="250" y="155" font-family="Arial, sans-serif" font-size="8" fill="#f59e0b">Score: 78</text>
  <rect x="300" y="145" width="40" height="15" fill="#f59e0b" rx="3"/>
  <text x="308" y="154" font-family="Arial, sans-serif" font-size="7" fill="white">Warm Lead</text>
  
  <rect x="35" y="170" width="320" height="25" fill="#f8fafc" stroke="#e2e8f0"/>
  <circle cx="50" cy="182" r="6" fill="#6b7280"/>
  <text x="65" y="185" font-family="Arial, sans-serif" font-size="10" fill="#1f2937">Mike Davis - Enterprise LLC</text>
  <text x="250" y="185" font-family="Arial, sans-serif" font-size="8" fill="#6b7280">Score: 45</text>
  <rect x="300" y="175" width="40" height="15" fill="#6b7280" rx="3"/>
  <text x="308" y="184" font-family="Arial, sans-serif" font-size="7" fill="white">Cold Lead</text>
  
  <!-- AI Automation Badge -->
  <rect x="35" y="205" width="80" height="20" fill="#00CCFF" rx="4"/>
  <text x="45" y="217" font-family="Arial, sans-serif" font-size="8" fill="white">🤖 AI Scoring</text>
  
  <!-- Stats -->
  <rect x="125" y="205" width="80" height="20" fill="#10b981" rx="4"/>
  <text x="135" y="217" font-family="Arial, sans-serif" font-size="8" fill="white">+300% Leads</text>
  
  <rect x="215" y="205" width="80" height="20" fill="#8b5cf6" rx="4"/>
  <text x="225" y="217" font-family="Arial, sans-serif" font-size="8" fill="white">15x ROI</text>
  
  <!-- AutoLead Logo -->
  <circle cx="350" cy="210" r="15" fill="#0066FF"/>
  <text x="341" y="215" font-family="Arial, sans-serif" font-size="8" font-weight="bold" fill="white">AL</text>
</svg>