<svg width="400" height="250" xmlns="http://www.w3.org/2000/svg">
  <rect width="400" height="250" fill="#f8fafc"/>
  <rect x="20" y="20" width="360" height="210" rx="8" fill="#ffffff" stroke="#e2e8f0"/>
  <text x="40" y="45" font-family="Arial, sans-serif" font-size="14" font-weight="bold" fill="#8b5cf6">EduConnect Video Platform</text>
  <rect x="40" y="60" width="200" height="120" fill="#1f2937" rx="6"/>
  <text x="120" y="125" font-family="Arial, sans-serif" font-size="12" font-weight="bold" fill="white">▶ Video Lecture</text>
  <rect x="50" y="160" width="50" height="4" fill="#e2e8f0" rx="2"/>
  <rect x="50" y="160" width="35" height="4" fill="#8b5cf6" rx="2"/>
  <text x="110" y="166" font-family="Arial, sans-serif" font-size="8" fill="#64748b">Progress: 70%</text>
  <rect x="260" y="60" width="100" height="60" fill="#f8fafc" stroke="#e2e8f0" rx="6"/>
  <text x="270" y="80" font-family="Arial, sans-serif" font-size="10" font-weight="bold" fill="#8b5cf6">Course Stats</text>
  <text x="270" y="95" font-family="Arial, sans-serif" font-size="8" fill="#64748b">Completion: 95%</text>
  <text x="270" y="105" font-family="Arial, sans-serif" font-size="8" fill="#64748b">Students: 10K+</text>
  <text x="270" y="115" font-family="Arial, sans-serif" font-size="8" fill="#64748b">Rating: 4.9⭐</text>
  <rect x="260" y="130" width="100" height="50" fill="#f8fafc" stroke="#e2e8f0" rx="6"/>
  <text x="270" y="150" font-family="Arial, sans-serif" font-size="10" font-weight="bold" fill="#0066FF">Features</text>
  <text x="270" y="165" font-family="Arial, sans-serif" font-size="8" fill="#64748b">• HD Streaming</text>
  <text x="270" y="175" font-family="Arial, sans-serif" font-size="8" fill="#64748b">• Interactive Quizzes</text>
  <rect x="40" y="190" width="320" height="25" fill="#f8fafc" stroke="#10b981"/>
  <text x="50" y="205" font-family="Arial, sans-serif" font-size="9" font-weight="bold" fill="#10b981">Platform Success: 10K+ active students • 95% completion rate • CDN optimized streaming</text>
</svg>