<svg width="400" height="250" xmlns="http://www.w3.org/2000/svg">
  <!-- Background -->
  <rect width="400" height="250" fill="#f8fafc"/>
  
  <!-- Browser Window -->
  <rect x="20" y="20" width="360" height="210" rx="8" fill="#ffffff" stroke="#e2e8f0" stroke-width="1"/>
  
  <!-- Browser Header -->
  <rect x="20" y="20" width="360" height="32" rx="8" fill="#f1f5f9"/>
  <circle cx="36" cy="36" r="4" fill="#ef4444"/>
  <circle cx="52" cy="36" r="4" fill="#f59e0b"/>
  <circle cx="68" cy="36" r="4" fill="#10b981"/>
  <text x="95" y="39" font-family="Arial, sans-serif" font-size="10" fill="#64748b">educonnect.com</text>
  
  <!-- Platform Header -->
  <rect x="40" y="70" width="320" height="35" fill="linear-gradient(to right, #8b5cf6, #0066FF)"/>
  <text x="50" y="88" font-family="Arial, sans-serif" font-size="14" font-weight="bold" fill="white">EduConnect</text>
  <text x="50" y="98" font-family="Arial, sans-serif" font-size="10" fill="white">Learning Management System</text>
  <rect x="280" y="78" width="60" height="18" rx="3" fill="white"/>
  <text x="295" y="89" font-family="Arial, sans-serif" font-size="7" fill="#8b5cf6">My Courses</text>
  
  <!-- Course Grid -->
  <rect x="50" y="120" width="90" height="70" rx="6" fill="#f8fafc" stroke="#e2e8f0"/>
  <rect x="55" y="125" width="80" height="35" fill="#8b5cf6" opacity="0.1"/>
  <text x="60" y="138" font-family="Arial, sans-serif" font-size="9" font-weight="bold" fill="#8b5cf6">React Development</text>
  <text x="60" y="150" font-family="Arial, sans-serif" font-size="7" fill="#64748b">Progress: 75%</text>
  <rect x="60" y="155" width="50" height="4" fill="#e2e8f0" rx="2"/>
  <rect x="60" y="155" width="37" height="4" fill="#8b5cf6" rx="2"/>
  <rect x="60" y="165" width="35" height="12" rx="2" fill="#10b981"/>
  <text x="67" y="173" font-family="Arial, sans-serif" font-size="6" fill="white">Continue</text>
  
  <rect x="150" y="120" width="90" height="70" rx="6" fill="#f8fafc" stroke="#e2e8f0"/>
  <rect x="155" y="125" width="80" height="35" fill="#0066FF" opacity="0.1"/>
  <text x="160" y="138" font-family="Arial, sans-serif" font-size="9" font-weight="bold" fill="#0066FF">Node.js Backend</text>
  <text x="160" y="150" font-family="Arial, sans-serif" font-size="7" fill="#64748b">Progress: 45%</text>
  <rect x="160" y="155" width="50" height="4" fill="#e2e8f0" rx="2"/>
  <rect x="160" y="155" width="22" height="4" fill="#0066FF" rx="2"/>
  <rect x="160" y="165" width="35" height="12" rx="2" fill="#0066FF"/>
  <text x="167" y="173" font-family="Arial, sans-serif" font-size="6" fill="white">Continue</text>
  
  <rect x="250" y="120" width="90" height="70" rx="6" fill="#f8fafc" stroke="#e2e8f0"/>
  <rect x="255" y="125" width="80" height="35" fill="#10b981" opacity="0.1"/>
  <text x="260" y="138" font-family="Arial, sans-serif" font-size="9" font-weight="bold" fill="#10b981">Database Design</text>
  <text x="260" y="150" font-family="Arial, sans-serif" font-size="7" fill="#64748b">Progress: 100%</text>
  <rect x="260" y="155" width="50" height="4" fill="#10b981" rx="2"/>
  <rect x="260" y="165" width="35" height="12" rx="2" fill="#f59e0b"/>
  <text x="267" y="173" font-family="Arial, sans-serif" font-size="6" fill="white">Certificate</text>
  
  <!-- Stats Panel -->
  <rect x="50" y="200" width="80" height="25" fill="#f8fafc" stroke="#e2e8f0"/>
  <text x="55" y="212" font-family="Arial, sans-serif" font-size="8" font-weight="bold" fill="#8b5cf6">10K+ Students</text>
  <text x="55" y="220" font-family="Arial, sans-serif" font-size="7" fill="#64748b">Active learners</text>
  
  <rect x="140" y="200" width="80" height="25" fill="#f8fafc" stroke="#e2e8f0"/>
  <text x="145" y="212" font-family="Arial, sans-serif" font-size="8" font-weight="bold" fill="#10b981">95% Completion</text>
  <text x="145" y="220" font-family="Arial, sans-serif" font-size="7" fill="#64748b">Course success</text>
  
  <rect x="230" y="200" width="80" height="25" fill="#f8fafc" stroke="#e2e8f0"/>
  <text x="235" y="212" font-family="Arial, sans-serif" font-size="8" font-weight="bold" fill="#0066FF">4.9⭐ Rating</text>
  <text x="235" y="220" font-family="Arial, sans-serif" font-size="7" fill="#64748b">User satisfaction</text>
  
  <!-- EduConnect Logo -->
  <circle cx="350" cy="210" r="15" fill="#8b5cf6"/>
  <text x="342" y="215" font-family="Arial, sans-serif" font-size="8" font-weight="bold" fill="white">EC</text>
</svg>